<?xml version="1.0" encoding="UTF-8" standalone="no"?>
<!-- Created with Inkscape (http://www.inkscape.org/) -->

<svg
   width="21.849997mm"
   height="9.4076538mm"
   viewBox="0 0 21.849997 9.4076538"
   version="1.1"
   id="svg5"
   inkscape:version="1.1 (c68e22c387, 2021-05-23)"
   sodipodi:docname="drawing.svg"
   xmlns:inkscape="http://www.inkscape.org/namespaces/inkscape"
   xmlns:sodipodi="http://sodipodi.sourceforge.net/DTD/sodipodi-0.dtd"
   xmlns="http://www.w3.org/2000/svg"
   xmlns:svg="http://www.w3.org/2000/svg">
  <sodipodi:namedview
     id="namedview7"
     pagecolor="#ffffff"
     bordercolor="#666666"
     borderopacity="1.0"
     inkscape:pageshadow="2"
     inkscape:pageopacity="0.0"
     inkscape:pagecheckerboard="0"
     inkscape:document-units="mm"
     showgrid="false"
     inkscape:zoom="8.4863924"
     inkscape:cx="39.062535"
     inkscape:cy="22.565537"
     inkscape:window-width="1920"
     inkscape:window-height="1027"
     inkscape:window-x="-8"
     inkscape:window-y="-8"
     inkscape:window-maximized="1"
     inkscape:current-layer="layer1"
     fit-margin-top="0"
     fit-margin-left="0"
     fit-margin-right="0"
     fit-margin-bottom="0" />
  <defs
     id="defs2">
    <pattern
       id="EMFhbasepattern"
       patternUnits="userSpaceOnUse"
       width="6"
       height="6"
       x="0"
       y="0" />
  </defs>
  <g
     inkscape:label="Layer 1"
     inkscape:groupmode="layer"
     id="layer1"
     transform="translate(-0.8070823,-0.92550412)">
    <g
       aria-label="ch;="
       id="text1298"
       style="font-size:9.85573px;line-height:125%;font-family:Astro11;letter-spacing:0px;word-spacing:0px;fill:#ffffff;fill-opacity:1;stroke-width:0.264583"
       inkscape:export-filename="C:\Users\navee\Desktop\logo.png"
       inkscape:export-xdpi="96"
       inkscape:export-ydpi="96"
       transform="translate(-4.988378,-11.067964)">
      <path
         d="m 13.485333,12.245146 h 0.289101 c 0.175214,0.0219 0.26282,0.100746 0.26282,0.236537 v 0.105128 c -0.06133,0.105128 -0.166454,0.157692 -0.315384,0.157692 h -0.07885 c -0.122648,0 -0.183973,-0.01752 -0.183973,-0.05256 -2.198403,-0.885975 -3.749677,0.592442 -3.749677,1.442225 0,0.258439 0.1138883,0.591344 0.341665,0.998714 l 0.276603,-0.0029 c 0.622006,0 0.918743,0.03675 1.23316,0.776671 0,0 0.109695,0.306909 0.118811,0.388528 0.05606,0.385979 -0.0121,0.613816 -0.419606,0.703718 v 0 c -0.534974,0.02834 -1.051272,-0.210265 -1.4717832,-1.182693 l -0.078846,-0.07885 C 9.5516821,15.88191 9.4728363,16.02208 9.4728363,16.15787 c 0,0.188354 0.2452982,0.39861 0.7358947,0.630767 0.455554,0.306623 0.683331,0.630767 0.683331,0.972432 v 0.05256 c 0,0.630767 -0.5344,1.042518 -1.6031994,1.235252 l -0.7096125,0.05256 c -0.8935862,0 -1.5418742,-0.306623 -1.9448641,-0.919868 C 6.5292582,17.997599 6.4766943,17.813625 6.4766943,17.629652 v -0.02628 c 0,-0.451173 0.073291,-0.85017 0.9377763,-1.016219 L 7.8211062,16.5566 C 7.6638293,16.169075 7.3632552,16.289464 7.2170011,16.289464 7.0535407,16.678765 6.6263386,16.757676 6.3818207,16.790744 6.0322724,16.838017 5.9548883,16.745346 5.817506,16.604948 L 5.7954603,16.34633 C 5.8986984,15.971448 6.2706514,15.921793 7.0105248,15.921793 H 7.165382 c 0.5549052,0 0.8349113,0.167511 1.0714988,0.513557 0.3100923,0.475732 -0.3025468,0.525594 -0.5315147,0.608504 -0.671048,0.169418 -0.8081604,0.292329 -0.8081604,0.612093 0,0.354806 0.2833018,0.691248 1.0097369,0.821937 1.2678037,0.233555 2.4050284,-1.96e-4 2.4331984,-0.611682 v -0.105127 c 0,-0.258439 -0.3679473,-0.573823 -1.103842,-0.94615 C 8.9734795,16.609048 8.8420697,16.407553 8.8420697,16.210438 v -0.02628 c 0,-0.275961 0.2102556,-0.573823 0.6307668,-0.893586 v -0.02628 C 9.3151448,14.935765 9.236299,14.585337 9.236299,14.21301 c 0,-1.033757 0.7193397,-1.669291 2.173608,-2.124845 1.02557,-0.282465 1.891452,0.156981 2.075426,0.156981 z m -3.062543,3.454245 c -0.10912,0.142205 0.06705,0.696405 0.325883,0.805235 0.266924,0.112234 0.407443,0.09378 0.505632,0.01949 0.12531,-0.09482 0.05067,-0.448174 0.05067,-0.448174 0,0 -0.136778,-0.392681 -0.465183,-0.497359 -0.247334,-0.07884 -0.416998,0.120809 -0.416998,0.120809 z m -4.1607418,0.763096 v 0 c 0,0 0.1302457,0.07994 0.2006964,0.07123 0.087118,-0.01077 0.1708608,-0.07264 0.2192467,-0.145883 0.1101813,-0.166784 -0.1966639,-0.209435 -0.1966639,-0.209435 0,0 -0.4423923,0.0793 -0.2232792,0.284087 z"
         style="font-size:9.85573px;fill:#ffffff;fill-opacity:1"
         id="path3443"
         sodipodi:nodetypes="scscsscsccccccccscsscccsscccsccssccsccscssccscscsscscccsssccc" />
      <path
         d="m 16.153972,14.974188 c 0.584516,0.109121 0.813067,0.141009 1.106549,0.719211 0.05257,0.08323 0.110027,0.372488 0.110027,0.517039 v 0.262819 c -0.05695,0.490597 -0.275963,0.735895 -0.657049,0.735895 -0.359186,0 -0.604484,-0.27158 -0.735894,-0.814741 l -0.02628,-0.105127 c 0,-0.332905 0.122649,-0.499357 0.367947,-0.499357 0.262819,0.02628 0.430935,0.04735 0.394229,0.289101 -0.04162,0.274145 -0.167514,0.14352 -0.307684,0.305592 0.163466,0.537338 0.478421,0.336484 0.595883,0.203651 0.06755,-0.199058 -0.0039,-0.511436 -0.0039,-0.511436 -0.09682,-0.467149 -0.326496,-0.673443 -0.77477,-0.735798 l -0.545317,0.0098 c -0.763302,0.111507 -0.932558,0.275995 -0.932558,0.586995 0.09685,0.481919 0.492386,0.3166 1.022195,0.719402 0.665809,0.477455 0.998714,0.95053 0.998714,1.419225 0,0.503737 -0.138948,0.946729 -1.040392,1.028893 v 0 c -0.847092,0.0378 -1.286394,-0.409043 -1.419513,-0.767263 -0.09959,0.545316 -0.756838,0.706905 -1.137927,0.706905 h -0.02628 c -0.81474,0 -1.203011,-0.381572 -1.422027,-1.152509 l -0.02628,-0.262819 c 0,-0.718373 0.481836,-1.296576 1.445507,-1.734609 l 0.367947,-0.05256 c 0.219016,0 0.40299,0.09637 0.551921,0.289102 v 0.105128 c 0,0.09637 -0.0438,0.166452 -0.13141,0.210255 H 13.743639 C 13.647272,16.34185 13.559666,16.289286 13.48082,16.289286 h -0.07885 c -0.332905,0 -0.692091,0.280341 -1.07756,0.841022 -0.08761,0.179593 -0.131409,0.346046 -0.131409,0.499357 0.122649,0.630767 0.481835,0.94615 1.077559,0.94615 0.40299,0 0.639528,-0.183974 0.709613,-0.551921 -0.06465,-0.353081 0.28411,-0.478583 0.28411,-0.478583 0,0 0.366008,0.06261 0.320377,0.373457 0.167578,0.523351 0.259857,0.688774 1.017297,0.815835 0.492561,-0.01163 0.612183,-0.360281 0.612183,-0.605579 v -0.05256 c 0,-0.363567 -0.306623,-0.713993 -0.919868,-1.051278 -0.700852,-0.275961 -1.051278,-0.600105 -1.051278,-0.972432 0,-0.512498 0.446793,-0.862924 1.34038,-1.051278 z"
         style="font-size:9.85573px;fill:#ffffff;fill-opacity:1"
         id="path3445"
         sodipodi:nodetypes="ccscscccscccccccscccsscccccsccssccsccccsscscc" />
      <path
         d="m 19.709622,15.474543 c 0.302243,0 0.600105,0.210256 0.893587,0.630767 0.315383,-0.140171 0.631504,-0.2318 0.94615,-0.210256 l 0.398418,0.02728 c 0.821577,0.05626 1.055854,0.419513 1.336195,1.3131 l 0.05256,0.367947 v 0.341665 c 0,0.657049 -0.446793,1.252773 -1.340379,1.787173 -0.232157,0.105127 -0.155052,0.181074 -0.322084,0.157691 -0.26282,-0.06133 -0.137016,-0.122587 -0.137016,-0.32408 0,-0.09637 -0.20671,-0.21908 0.143716,-0.227841 0.753416,-0.328524 1.130124,-0.889205 1.130124,-1.682044 0,-0.512498 -0.201495,-0.897967 -0.604485,-1.156406 -0.153311,-0.07008 -0.311993,-0.09837 -0.491563,-0.101231 l -0.244331,-0.0039 c -0.19709,-0.0031 -0.459934,0.0438 -0.788459,0.13141 l -0.01949,-0.439474 c 0.904188,0.323653 1.017049,1.244147 0.991918,1.727293 0,0.630767 -0.508117,1.042518 -1.524352,1.235252 l -0.473076,0.02628 c -0.551921,0 -0.626614,-0.104097 -0.945055,-0.390236 -0.09643,-0.09634 -0.202584,-0.328138 -0.263914,-0.371941 -0.324144,0.122649 -0.39117,0.160591 -0.505059,0.160591 -0.109508,0 -0.439737,0.003 -0.452878,-0.154696 0,-0.175213 0.379734,-0.470209 0.905373,-0.768071 1.07756,-0.80598 1.664523,-1.20897 1.76089,-1.20897 v -0.05256 C 19.976823,16.07903 19.740285,15.9739 19.446803,15.9739 c 0.07009,0.09199 0.105128,0.188354 0.105128,0.289102 v 0.07885 c 0,0.2672 -0.245298,0.459934 -0.735895,0.578203 h -0.157691 c -0.367947,-0.06571 -0.551921,-0.24092 -0.551921,-0.525639 0,-0.442413 0.41175,-0.749035 1.235251,-0.919868 z m -1.103841,0.841023 v 0.07885 c 0.01752,0.07008 0.105126,0.105128 0.262819,0.105128 0.100747,-0.03066 0.170833,-0.09198 0.210256,-0.183973 -0.03504,-0.118269 -0.0876,-0.188355 -0.157692,-0.210256 h -0.02628 c -0.09199,0 -0.188354,0.07008 -0.289101,0.210256 z m 0.907082,0.448406 h 0.02628 c 0.711639,-0.0182 0.640532,0.102953 -0.02628,0 z m -0.118624,0.550307 c -0.429272,0.332905 -0.66581,0.499357 -0.709613,0.499357 0.324144,0.543161 0.683331,0.814741 1.07756,0.814741 0.530019,0 0.87452,-0.101135 1.193286,-0.541132 l 0.126606,-0.611664 c -0.07009,-0.420511 -0.253061,-0.837317 -0.603487,-0.837317 -0.412049,0.188246 -0.762656,0.427626 -1.084352,0.676015 z"
         style="font-size:9.85573px;fill:#ffffff;fill-opacity:1"
         id="path3447"
         sodipodi:nodetypes="scssccsccscscsscccccccscccccssccscscccccscccccccscccc" />
      <path
         d="m 22.758319,18.720364 c 0.105128,0.06133 0.221746,0.164542 0.157692,0.236537 l -0.09353,0.105128 c -0.07279,0.08181 -0.107963,0.179593 -0.510953,0.210256 -0.262819,0.09199 -0.394229,0.240918 -0.394229,0.446793 0,0.332905 0.376708,0.68333 1.130124,1.051277 0.341665,0.140171 0.718373,0.210256 1.130123,0.210256 h 0.02628 c 0.740275,0 2.076398,-0.297862 2.667741,-0.893586 0.07008,-0.100747 0.105128,-0.188354 0.105128,-0.26282 l -0.02628,-0.341665 c 0.03066,-0.07008 0.09198,-0.105128 0.183974,-0.105128 h 0.05256 c 0.192734,0.03504 0.289101,0.122647 0.289101,0.26282 v 0.210255 c 0,0.424892 -0.506248,0.775254 -1.34727,1.191385 -0.543161,0.192734 -1.600812,0.35925 -2.003801,0.35925 -0.968052,0 -1.765271,-0.341665 -2.391658,-1.024996 -0.175213,-0.306623 -0.262819,-0.569442 -0.262819,-0.788458 0,-0.473075 0,0 0.841028,-0.315383 z"
         style="font-size:9.85573px;fill:#ffffff;fill-opacity:1"
         id="path3449"
         sodipodi:nodetypes="csscscsscccscsscscscc" />
    </g>
    <text
       xml:space="preserve"
       style="font-size:4.13946px;line-height:1.25;font-family:Astro11;-inkscape-font-specification:Astro11;fill:#ffffff;fill-opacity:1;stroke-width:0.103487"
       x="18.11231"
       y="7.8044176"
       id="text5289"
       transform="scale(1.0091399,0.99094289)"
       inkscape:export-filename="C:\Users\navee\Desktop\logo.png"
       inkscape:export-xdpi="96"
       inkscape:export-ydpi="96"><tspan
         sodipodi:role="line"
         id="tspan5287"
         style="font-style:normal;font-variant:normal;font-weight:normal;font-stretch:normal;font-family:'Comic Sans MS';-inkscape-font-specification:'Comic Sans MS';fill:#ffffff;fill-opacity:1;stroke-width:0.103487"
         x="18.11231"
         y="7.8044176"
         rotate="0 0 0 0">.lk</tspan></text>
  </g>
</svg>
